<svg width="45" height="45" viewBox="0 0 45 45" fill="none" xmlns="http://www.w3.org/2000/svg">
<g clip-path="url(#clip0_9_2)">
<path d="M22.5 45C34.9264 45 45 34.9264 45 22.5C45 10.0736 34.9264 0 22.5 0C10.0736 0 0 10.0736 0 22.5C0 34.9264 10.0736 45 22.5 45Z" fill="#316EAC"/>
<path fill-rule="evenodd" clip-rule="evenodd" d="M6.3378 48.1824C6.10089 48.1824 5.87352 48.089 5.70504 47.9225C5.53655 47.7559 5.44052 47.5297 5.4378 47.2928L5.41035 45H3.15C2.91131 45 2.68239 44.9052 2.5136 44.7364C2.34482 44.5676 2.25 44.3387 2.25 44.1V35.1C2.25 34.9547 2.2851 34.8111 2.35305 34.6824L7.30305 25.2324C7.37505 25.0947 7.48125 24.9786 7.6113 24.8945L14.9801 20.1263L18.036 9.648C18.084 9.48346 18.1779 9.33604 18.3069 9.22308C18.4358 9.11012 18.5942 9.03632 18.7636 9.01035L18.9 9C19.0482 9.00003 19.194 9.03664 19.3247 9.10658C19.4553 9.17653 19.5666 9.27764 19.6488 9.40095L22.1778 13.194L24.5848 13.9964C24.7882 14.0643 24.9615 14.2029 25.0717 14.3874L31.3587 24.8657L35.0869 22.6287C35.2777 22.5138 35.5044 22.4738 35.723 22.5166C35.9416 22.5593 36.1365 22.6817 36.27 22.86L41.67 30.06C41.7073 30.1095 41.7393 30.1631 41.7659 30.2193L44.9159 36.9693C45.0025 37.1554 45.0231 37.3655 44.9741 37.5649C44.925 37.7642 44.8094 37.9408 44.6463 38.0655L31.6341 47.9979C31.477 48.1176 31.2853 48.1824 31.0878 48.1824H6.3378Z" fill="white"/>
<path fill-rule="evenodd" clip-rule="evenodd" d="M31.0878 47.2828H6.33782L6.30002 44.1H3.15002V35.1L8.10003 25.65L15.75 20.7L18.9 9.89999L21.6 13.95L24.3 14.85L31.05 26.1L35.55 23.4L40.95 30.6L44.1 37.35L31.0878 47.2828Z" fill="white"/>
<path fill-rule="evenodd" clip-rule="evenodd" d="M3.60001 48.6C3.36132 48.6 3.1324 48.5052 2.96362 48.3364C2.79483 48.1676 2.70001 47.9387 2.70001 47.7V34.2C2.69995 34.0602 2.73246 33.9223 2.79496 33.7973L7.29496 24.7973C7.36682 24.6534 7.4761 24.5315 7.61131 24.4445L14.9589 19.6902L17.5748 8.79031C17.6219 8.59364 17.7339 8.41858 17.8927 8.29334C18.0514 8.16811 18.2478 8.1 18.45 8.10001H18.4676C18.6726 8.10391 18.8702 8.17773 19.0275 8.30924C19.1849 8.44075 19.2927 8.62206 19.3329 8.82316L20.6829 15.5732C20.7 15.6614 20.7045 15.7509 20.6955 15.84L20.2455 20.34C20.2379 20.4144 20.2211 20.4875 20.1956 20.5578L18.3956 25.5078L16.2311 31.5684L17.532 38.0736C17.5626 38.2275 17.5527 38.3864 17.5037 38.5349L15.75 43.7958V47.7C15.75 47.9387 15.6552 48.1676 15.4864 48.3364C15.3176 48.5052 15.0887 48.6 14.85 48.6H3.60001ZM31.9491 37.35C31.7975 37.35 31.644 37.3118 31.5036 37.2312L28.3536 35.4312C28.177 35.3303 28.0399 35.1726 27.9644 34.9837C27.8889 34.7949 27.8795 34.5861 27.9378 34.3913L30.6378 25.3913C30.7053 25.1663 30.8579 24.9768 31.0626 24.863L35.1126 22.613C35.2499 22.5374 35.4044 22.4987 35.5612 22.5006C35.7179 22.5026 35.8714 22.5452 36.0068 22.6242C36.2813 22.7862 36.45 23.081 36.45 23.4V31.05C36.45 31.2278 36.3974 31.4015 36.2988 31.5491L32.6988 36.9491C32.6166 37.0725 32.5051 37.1737 32.3743 37.2436C32.2435 37.3136 32.0974 37.3501 31.9491 37.35Z" fill="#6BC8F2"/>
<path fill-rule="evenodd" clip-rule="evenodd" d="M31.5 25.65L28.8 34.65L31.95 36.45L35.55 31.05V23.4L31.5 25.65ZM15.75 20.25L8.09998 25.2L3.59998 34.2V47.7H14.85V43.65L16.65 38.25L15.3 31.5L17.55 25.2L19.35 20.25L19.8 15.75L18.45 9L15.75 20.25Z" fill="#6BC8F2"/>
<path opacity="0.2" d="M34.425 13.95C34.7978 13.95 35.1 13.6478 35.1 13.275C35.1 12.9022 34.7978 12.6 34.425 12.6C34.0522 12.6 33.75 12.9022 33.75 13.275C33.75 13.6478 34.0522 13.95 34.425 13.95Z" fill="white"/>
<path opacity="0.1" d="M6.52498 18.9C6.89777 18.9 7.19998 18.5978 7.19998 18.225C7.19998 17.8522 6.89777 17.55 6.52498 17.55C6.15218 17.55 5.84998 17.8522 5.84998 18.225C5.84998 18.5978 6.15218 18.9 6.52498 18.9Z" fill="white"/>
<path opacity="0.43" d="M25.425 7.64999C25.7978 7.64999 26.1 7.34778 26.1 6.97499C26.1 6.6022 25.7978 6.29999 25.425 6.29999C25.0522 6.29999 24.75 6.6022 24.75 6.97499C24.75 7.34778 25.0522 7.64999 25.425 7.64999Z" fill="white"/>
</g>
<defs>
<clipPath id="clip0_9_2">
<rect width="45" height="45" fill="white"/>
</clipPath>
</defs>
</svg>
