<svg width="116" height="116" viewBox="0 0 116 116" fill="none" xmlns="http://www.w3.org/2000/svg">
<g filter="url(#filter0_d_9_78)">
<circle cx="58" cy="58" r="38" fill="#316EAC"/>
<path fill-rule="evenodd" clip-rule="evenodd" d="M84.3437 59.8881L79.1562 54.2489C78.8126 53.9106 78.3498 53.721 77.8676 53.721C77.3854 53.721 76.9226 53.9106 76.579 54.2489L71.3849 59.8881C71.2154 60.0558 71.0808 60.2554 70.989 60.4755C70.8972 60.6955 70.8499 60.9316 70.8499 61.17C70.8499 61.4084 70.8972 61.6445 70.989 61.8646C71.0808 62.0846 71.2154 62.2842 71.3849 62.4519H75.6823C74.8785 65.472 73.2916 68.2263 71.082 70.4364C68.8725 72.6465 66.1186 74.2342 63.0988 75.0388C59.5697 75.962 55.8426 75.7825 52.4186 74.5244C48.9946 73.2663 46.038 70.9899 43.9462 68.0015L40.3229 70.4956C42.9329 74.2245 46.6224 77.0646 50.895 78.6339C55.1675 80.2032 59.8182 80.4262 64.2213 79.2732C68.1813 78.2232 71.7723 76.0948 74.5944 73.125C77.4165 70.1551 79.359 66.4604 80.2056 62.4519H84.3404C84.5097 62.2842 84.6441 62.0847 84.736 61.8648C84.8279 61.6449 84.8753 61.409 84.8756 61.1707C84.8759 60.9324 84.8291 60.6964 84.7378 60.4762C84.6465 60.2561 84.5126 60.0562 84.3437 59.8881Z" fill="#F8F8F8"/>
<path fill-rule="evenodd" clip-rule="evenodd" d="M46.7459 56.9423C46.9154 56.7746 47.0499 56.5749 47.1417 56.3549C47.2336 56.1349 47.2809 55.8988 47.2809 55.6604C47.2809 55.4219 47.2336 55.1859 47.1417 54.9658C47.0499 54.7458 46.9154 54.5461 46.7459 54.3784H41.9071C42.7303 51.3965 44.3193 48.6819 46.5163 46.5041C48.7133 44.3263 51.4418 42.7612 54.4308 41.9643C57.96 41.0401 61.6877 41.2198 65.1116 42.4793C68.5354 43.7388 71.491 46.0174 73.5801 49.0083L77.2067 46.5108C74.5959 42.7799 70.9051 39.938 66.6307 38.3676C62.3564 36.7971 57.7036 36.5734 53.2983 37.7266C49.3688 38.7718 45.8028 40.8783 42.991 43.8155C40.1792 46.7527 38.2301 50.4071 37.3572 54.3784H32.535C32.3655 54.5461 32.2309 54.7458 32.1391 54.9658C32.0473 55.1859 32 55.4219 32 55.6604C32 55.8988 32.0473 56.1349 32.1391 56.3549C32.2309 56.5749 32.3655 56.7746 32.535 56.9423L37.9749 62.3789C38.3185 62.7172 38.7813 62.9068 39.2635 62.9068C39.7457 62.9068 40.2085 62.7172 40.5521 62.3789L46.7459 56.9423Z" fill="#F8F8F8"/>
</g>
<defs>
<filter id="filter0_d_9_78" x="0" y="0" width="116" height="116" filterUnits="userSpaceOnUse" color-interpolation-filters="sRGB">
<feFlood flood-opacity="0" result="BackgroundImageFix"/>
<feColorMatrix in="SourceAlpha" type="matrix" values="0 0 0 0 0 0 0 0 0 0 0 0 0 0 0 0 0 0 127 0" result="hardAlpha"/>
<feOffset/>
<feGaussianBlur stdDeviation="10"/>
<feComposite in2="hardAlpha" operator="out"/>
<feColorMatrix type="matrix" values="0 0 0 0 1 0 0 0 0 1 0 0 0 0 1 0 0 0 1 0"/>
<feBlend mode="normal" in2="BackgroundImageFix" result="effect1_dropShadow_9_78"/>
<feBlend mode="normal" in="SourceGraphic" in2="effect1_dropShadow_9_78" result="shape"/>
</filter>
</defs>
</svg>
